<svg version="1.0" xmlns="http://www.w3.org/2000/svg" preserveAspectRatio="xMidYMid meet" viewBox="102.9 119.1 181.1 27.7">

<g transform="translate(0.000000,290.000000) scale(0.100000,-0.100000)" fill="#000000" stroke="none">
<path d="M1112 1667 l-83 -43 50 -24 51 -24 30 29 c16 16 33 25 37 21 5 -4 -4 -17 -20 -28 -33 -24 -34 -32 -2 -46 22 -10 36 -6 110 30 l85 43 -82 42 c-46 23 -85 42 -88 42 -3 0 -42 -19 -88 -42z"/>
<path d="M1470 1577 c0 -51 5 -88 12 -95 7 -7 33 -12 58 -12 25 0 51 5 58 12 7 7 12 44 12 95 0 76 -2 83 -20 83 -17 0 -19 -8 -22 -72 -3 -70 -4 -73 -28 -73 -24 0 -25 3 -28 73 -3 64 -5 72 -22 72 -18 0 -20 -7 -20 -83z"/>
<path d="M1650 1565 c0 -88 1 -95 20 -95 15 0 20 7 20 25 0 22 4 25 39 25 51 0 63 17 59 82 l-3 53 -67 3 -68 3 0 -96z m98 28 c-2 -22 -8 -28 -28 -28 -20 0 -26 6 -28 28 -3 24 0 27 28 27 28 0 31 -3 28 -27z"/>
<path d="M1839 1568 c-25 -91 -25 -93 -6 -96 11 -2 24 3 29 12 11 20 47 21 54 1 4 -8 15 -15 26 -15 22 0 21 7 -11 123 -15 53 -21 62 -43 65 -23 3 -26 -2 -49 -90z m61 -19 c0 -5 -4 -9 -10 -9 -5 0 -10 7 -10 16 0 8 5 12 10 9 6 -3 10 -10 10 -16z"/>
<path d="M2006 1644 c-8 -21 -7 -66 2 -81 4 -6 21 -13 37 -15 19 -2 31 -10 33 -20 3 -15 -4 -18 -37 -18 -34 0 -41 -3 -41 -20 0 -17 7 -20 53 -20 60 0 77 12 77 53 0 45 -17 67 -50 67 -20 0 -30 5 -30 15 0 11 11 15 40 15 33 0 40 3 40 20 0 18 -7 20 -59 20 -44 0 -60 -4 -65 -16z"/>
<path d="M2170 1640 c0 -15 7 -20 25 -20 24 0 25 -2 25 -75 0 -68 2 -75 20 -75 18 0 20 7 20 75 0 73 1 75 25 75 18 0 25 5 25 20 0 18 -7 20 -70 20 -63 0 -70 -2 -70 -20z"/>
<path d="M2350 1565 c0 -88 1 -95 20 -95 19 0 20 7 20 95 0 88 -1 95 -20 95 -19 0 -20 -7 -20 -95z"/>
<path d="M2440 1640 c0 -15 7 -20 25 -20 24 0 25 -2 25 -75 0 -68 2 -75 20 -75 18 0 20 7 20 75 0 73 1 75 25 75 18 0 25 5 25 20 0 18 -7 20 -70 20 -63 0 -70 -2 -70 -20z"/>
<path d="M2620 1565 c0 -87 2 -95 19 -95 16 0 20 8 23 38 2 29 7 37 23 37 16 0 21 -8 23 -37 3 -33 7 -38 28 -38 24 0 24 1 24 95 0 95 0 95 -25 95 -22 0 -25 -4 -25 -35 0 -31 -3 -35 -25 -35 -22 0 -25 4 -25 35 0 28 -4 35 -20 35 -19 0 -20 -7 -20 -95z"/>
<path d="M2800 1565 c0 -88 1 -95 20 -95 19 0 20 7 20 95 0 88 -1 95 -20 95 -19 0 -20 -7 -20 -95z"/>
<path d="M1257 1549 c-45 -23 -62 -27 -77 -19 -31 16 -36 12 -32 -25 4 -31 1 -35 -18 -35 -21 0 -22 3 -16 44 6 35 4 45 -9 50 -26 10 -26 9 -23 -40 2 -37 9 -51 29 -66 38 -29 101 -34 154 -13 49 18 59 36 53 97 l-3 36 -58 -29z"/>
</g>
</svg>