<?xml version="1.0" standalone="no"?>
<!DOCTYPE svg PUBLIC "-//W3C//DTD SVG 20010904//EN"
 "http://www.w3.org/TR/2001/REC-SVG-20010904/DTD/svg10.dtd">
<svg version="1.0" xmlns="http://www.w3.org/2000/svg"
 width="1281.000000pt" height="225.000000pt" viewBox="0 0 1281.000000 225.000000"
 preserveAspectRatio="xMidYMid meet">
<metadata>
Created by potrace 1.16, written by Peter Selinger 2001-2019
</metadata>
<g transform="translate(0.000000,225.000000) scale(0.100000,-0.100000)"
fill="#000000" stroke="none">
<path d="M0 1914 c0 -263 3 -335 13 -332 6 2 142 70 302 153 352 181 701 348
729 348 45 0 1204 -579 1189 -594 -5 -3 -159 -83 -343 -176 -582 -294 -756
-366 -888 -366 -67 0 -79 3 -169 49 -107 54 -140 87 -129 128 10 39 66 96 167
172 130 96 193 189 143 208 -26 10 -120 -39 -193 -99 -36 -29 -111 -99 -166
-154 -55 -56 -103 -101 -107 -101 -4 0 -127 56 -273 125 -146 69 -268 125
-270 125 -3 0 -5 -315 -5 -700 l0 -700 6405 0 6405 0 0 1125 0 1125 -6405 0
-6405 0 0 -336z m4760 -190 c223 -9 409 -20 413 -24 4 -4 15 -124 23 -266 21
-364 5 -492 -71 -581 -61 -71 -172 -103 -362 -103 -127 0 -193 -14 -223 -45
-19 -21 -24 -41 -31 -124 -8 -108 -15 -129 -55 -160 -20 -16 -41 -21 -84 -21
-69 0 -104 23 -120 78 -7 20 -15 147 -20 282 -11 304 -13 974 -3 984 4 4 35 5
68 2 33 -3 242 -13 465 -22z m-1601 1 c50 -25 65 -90 81 -346 6 -96 15 -247
20 -337 13 -203 24 -258 60 -294 27 -27 33 -28 123 -28 167 0 176 20 197 425
27 536 43 595 159 595 69 0 93 -17 116 -80 19 -52 20 -80 20 -455 0 -422 -11
-559 -53 -673 -35 -94 -150 -127 -437 -127 -201 1 -282 13 -372 56 -49 24 -64
56 -87 180 -46 245 -47 926 -2 1032 7 19 24 42 37 51 29 20 101 21 138 1z
m4383 -4 c54 -17 78 -53 78 -117 0 -120 -26 -135 -261 -145 -250 -11 -299 -28
-299 -108 0 -62 62 -101 159 -101 128 0 244 -40 296 -102 77 -91 111 -224 102
-402 -6 -138 -20 -179 -77 -237 -85 -88 -213 -113 -533 -107 -177 3 -207 6
-242 23 -48 24 -65 54 -65 115 0 112 41 132 290 141 102 3 197 11 212 17 63
26 73 100 21 162 -37 45 -84 65 -208 90 -127 25 -216 61 -250 101 -41 50 -58
157 -52 337 8 274 36 313 241 342 87 12 543 5 588 -9z m1265 -1 c65 -19 86
-48 86 -120 -1 -106 -31 -130 -177 -141 -117 -9 -139 -23 -156 -103 -7 -30
-15 -212 -20 -441 -8 -409 -13 -449 -55 -491 -20 -20 -34 -24 -85 -24 -51 0
-65 4 -85 24 -42 42 -47 81 -55 496 -6 272 -13 410 -22 444 -19 71 -45 87
-159 95 -141 11 -171 36 -172 141 -1 92 30 114 178 134 73 10 682 -2 722 -14z
m582 5 c63 -32 74 -148 69 -733 -4 -394 -7 -464 -22 -509 -9 -29 -26 -59 -39
-68 -25 -17 -118 -20 -148 -5 -58 32 -69 134 -69 655 0 537 11 640 73 665 35
14 105 11 136 -5z m1329 -5 c62 -18 82 -49 82 -124 0 -104 -27 -126 -174 -137
-115 -9 -137 -23 -156 -97 -8 -31 -15 -185 -20 -442 -8 -415 -13 -454 -55
-496 -35 -35 -135 -35 -170 0 -42 42 -47 81 -55 496 -6 270 -13 411 -22 444
-19 71 -45 87 -159 95 -141 11 -171 36 -172 141 -1 92 30 114 178 134 74 10
682 -2 723 -14z m603 -6 c34 -31 41 -60 49 -225 11 -222 23 -239 175 -239 157
0 166 13 177 231 9 184 20 222 72 244 42 18 174 20 210 4 14 -7 32 -27 41 -46
28 -58 37 -278 32 -723 -6 -556 -6 -553 -156 -558 -162 -7 -185 22 -211 268
-15 140 -27 185 -59 219 -49 53 -159 51 -209 -2 -25 -26 -48 -113 -57 -212
-14 -157 -43 -242 -90 -263 -40 -18 -119 -15 -145 6 -48 39 -53 92 -58 592 -5
584 6 693 71 720 37 16 133 6 158 -16z m1270 -3 c42 -51 44 -83 44 -636 0
-577 -3 -616 -52 -655 -34 -27 -131 -28 -163 -2 -46 38 -52 95 -57 557 -7 577
7 721 70 754 12 6 49 9 81 8 47 -3 63 -8 77 -26z m-6594 -9 c102 -53 137 -137
282 -675 92 -342 113 -439 115 -525 1 -81 -19 -102 -98 -102 -66 1 -124 27
-161 74 -73 92 -99 113 -150 124 -100 21 -197 -16 -260 -100 -50 -68 -106 -92
-193 -85 -149 12 -148 29 63 801 105 384 144 478 209 507 33 14 150 3 193 -19z
m-4122 -776 c15 -193 16 -248 7 -317 -15 -106 -57 -194 -118 -248 -88 -77
-301 -167 -494 -208 -119 -25 -372 -25 -490 0 -174 38 -320 111 -425 212 -109
106 -140 212 -151 519 -6 161 -5 172 13 195 19 23 22 24 67 12 79 -19 135 -51
154 -85 22 -40 21 -153 -3 -301 -10 -60 -18 -145 -19 -188 -1 -105 12 -117
129 -117 127 0 148 30 134 185 -13 141 -11 248 7 273 23 33 72 28 175 -18 168
-76 229 -60 689 170 162 82 298 149 301 149 3 1 14 -104 24 -233z"/>
<path d="M4600 1450 c-72 -15 -84 -37 -77 -150 11 -184 50 -230 197 -230 124
0 171 36 190 147 6 37 10 97 8 132 -4 91 -20 101 -164 106 -60 2 -129 0 -154
-5z"/>
<path d="M5861 1041 c-27 -64 23 -159 77 -146 61 14 71 83 21 140 -40 46 -81
48 -98 6z"/>
</g>
</svg>
